<!-- Lucide ISC: thumbs-up - https://lucide.dev -->
<svg xmlns="http://www.w3.org/2000/svg" viewBox="0 0 120 120" fill="none" aria-hidden="true">
  <rect width="120" height="120" rx="28" fill="white" fill-opacity="0.18"/>
  <g transform="translate(30 30) scale(2.5)" stroke="white" stroke-width="2" stroke-linecap="round" stroke-linejoin="round" fill="none">
    <path d="M7 10v12"/>
    <path d="M15 5.88 14 10h5.83a2 2 0 0 1 1.92 2.56l-2.33 8A2 2 0 0 1 17.5 22H4a2 2 0 0 1-2-2v-8a2 2 0 0 1 2-2h2.76a2 2 0 0 0 1.79-1.11L12 2a3.13 3.13 0 0 1 3 3.88Z"/>
  </g>
</svg>
